<svg width="31" height="30" viewBox="0 0 31 30" fill="none" xmlns="http://www.w3.org/2000/svg">
<path fill-rule="evenodd" clip-rule="evenodd" d="M14.9926 0C19.0013 -6.60433e-06 22.7637 1.56024 25.6007 4.39533C28.4378 7.23042 30.0068 10.9915 30.0093 15C30.0117 19.0084 28.4537 22.7695 25.6201 25.6046C22.7294 28.4968 18.8865 30 15.0046 30C12.5879 30 10.1518 29.4165 7.92469 28.2178C5.92752 29.6575 3.97407 29.9683 2.64838 29.9683C2.15363 29.9683 1.74765 29.9239 1.46219 29.8795C0.853202 29.7844 0.383528 29.3087 0.288011 28.6998C0.192493 28.0909 0.50294 27.5011 1.05461 27.2283C2.20235 26.6639 2.97551 25.5349 3.45698 24.5645C-1.46246 18.647 -1.08725 9.87529 4.38975 4.39537C7.22334 1.56027 10.9838 6.60441e-06 14.9926 0ZM16.0503 15.0054C16.0507 15.5868 15.5795 16.0582 14.9979 16.0582C14.4162 16.0582 13.9445 15.5868 13.9441 15.0054C13.9437 14.4239 14.4149 13.9526 14.9966 13.9526C15.5782 13.9526 16.05 14.4239 16.0503 15.0054ZM20.4275 16.0565C21.0091 16.0565 21.4802 15.5851 21.4799 15.0037C21.4795 14.4222 21.0078 13.9508 20.4262 13.9508C19.8446 13.9508 19.3734 14.4222 19.3738 15.0037C19.3741 15.5851 19.8459 16.0565 20.4275 16.0565ZM10.6206 15.0071C10.621 15.5885 10.1498 16.0599 9.56816 16.0599C8.98655 16.0599 8.51477 15.5885 8.51441 15.0071C8.51406 14.4257 8.98526 13.9543 9.56688 13.9543C10.1485 13.9543 10.6203 14.4256 10.6206 15.0071Z" fill="#D5D9DC"/>
</svg>
