<svg width="24" height="24" viewBox="0 0 24 24" fill="none" xmlns="http://www.w3.org/2000/svg">
<path fill-rule="evenodd" clip-rule="evenodd" d="M3 10.7545C3 6.47967 6.47555 3 10.7545 3C15.0293 3 18.509 6.47555 18.509 10.7545C18.509 12.5206 17.916 14.1508 16.9187 15.456L20.6984 19.2357C21.0994 19.6367 21.1005 20.2924 20.7019 20.6949C20.4969 20.9056 20.2255 21.0038 19.967 21.0038C19.6981 21.0038 19.4321 20.8948 19.2357 20.6984L15.456 16.9187C14.1508 17.916 12.5206 18.509 10.7545 18.509C6.47949 18.509 3 15.0295 3 10.7545ZM10.7507 5.07347C7.62023 5.07347 5.06972 7.62065 5.06972 10.7545C5.06972 13.8888 7.62065 16.4393 10.7507 16.4393C13.8842 16.4393 16.4318 13.8854 16.4318 10.7545C16.4318 7.62399 13.8846 5.07347 10.7507 5.07347Z" fill="#B9BFC5"/>
</svg>
