<svg width="16" height="16" viewBox="0 0 16 16" fill="none" xmlns="http://www.w3.org/2000/svg">
<path d="M11.7372 3.42379C11.2735 3.42379 10.8972 3.79961 10.8972 4.26352C10.8972 4.72727 11.2735 5.10351 11.7372 5.10351C12.201 5.10351 12.5772 4.72727 12.5772 4.26352C12.5772 3.79974 12.201 3.4235 11.7372 3.42379Z" fill="#009FDA"/>
<path fill-rule="evenodd" clip-rule="evenodd" d="M5.11427 1.0423C5.86073 1.0083 6.09918 1 7.99845 1C9.90018 1 10.1379 1.0083 10.8846 1.0423C11.6298 1.07642 12.1387 1.1944 12.585 1.36751C13.0458 1.54615 13.4352 1.78533 13.8246 2.17471C14.214 2.56377 14.4531 2.95433 14.6325 3.41474C14.8046 3.85983 14.9227 4.36849 14.9577 5.11371C14.9912 5.86038 15 6.09897 15 8.00006C15 9.90119 14.9912 10.1392 14.9577 10.8858C14.9227 11.6308 14.8046 12.1396 14.6325 12.5848C14.4531 13.0451 14.214 13.4356 13.8246 13.8247C13.4356 14.2141 13.0457 14.4539 12.5854 14.6326C12.14 14.8058 11.6308 14.9237 10.8856 14.9579C10.1389 14.9918 9.90103 15.0002 7.99979 15.0002C6.09881 15.0002 5.8604 14.9918 5.11369 14.9579C4.36862 14.9237 3.85983 14.8058 3.41442 14.6326C2.95433 14.4539 2.56377 14.2141 2.17482 13.8247C1.7856 13.4356 1.54645 13.0451 1.36749 12.5847C1.19456 12.1396 1.07658 11.6309 1.0423 10.8857C1.00844 10.139 1 9.90119 1 8.00006C1 6.09897 1.00876 5.86025 1.04214 5.11355C1.07568 4.36865 1.19381 3.85983 1.36738 3.41458C1.54671 2.95433 1.78592 2.56377 2.1753 2.17471C2.56436 1.78547 2.95492 1.54629 3.41533 1.36751C3.86041 1.1944 4.3691 1.07642 5.11427 1.0423ZM7.76037 2.26142L8.00064 2.2615C9.86963 2.2615 10.0912 2.2682 10.8292 2.30174C11.5117 2.33295 11.8822 2.44698 12.1289 2.54281C12.4556 2.66968 12.6885 2.82135 12.9334 3.06635C13.1783 3.31135 13.33 3.54468 13.4572 3.87136C13.553 4.11783 13.6672 4.48825 13.6982 5.17075C13.7318 5.90866 13.7391 6.13035 13.7391 7.99851C13.7391 9.86664 13.7318 10.0883 13.6982 10.8262C13.667 11.5087 13.553 11.8791 13.4572 12.1256C13.3303 12.4523 13.1783 12.6849 12.9334 12.9297C12.6883 13.1748 12.4557 13.3264 12.1289 13.4533C11.8825 13.5496 11.5117 13.6633 10.8292 13.6945C10.0913 13.728 9.86963 13.7354 8.00064 13.7354C6.13149 13.7354 5.90997 13.728 5.172 13.6945C4.48953 13.663 4.11911 13.549 3.87222 13.4532C3.54553 13.3263 3.3122 13.1746 3.06718 12.9296C2.8222 12.6846 2.67053 12.4519 2.54337 12.125C2.44751 11.8785 2.33333 11.5081 2.3023 10.8256C2.26876 10.0877 2.26203 9.86605 2.26203 7.99674C2.26203 6.12744 2.26876 5.90692 2.3023 5.16899C2.33349 4.48649 2.44751 4.11607 2.54337 3.86931C2.67021 3.54265 2.8222 3.30932 3.06718 3.06429C3.3122 2.81929 3.54553 2.66765 3.87222 2.54046C4.11895 2.44423 4.48953 2.33047 5.172 2.29912C5.81779 2.26994 6.06805 2.2612 7.37264 2.25974V2.2615C7.49259 2.26131 7.62146 2.26136 7.76037 2.26142Z" fill="#009FDA"/>
<path fill-rule="evenodd" clip-rule="evenodd" d="M4.40579 8.00011C4.40579 6.01483 6.01539 4.40526 8.00064 4.40526C9.98573 4.40526 11.5948 6.01483 11.5948 8.00011C11.5948 9.98536 9.98589 11.5942 8.00064 11.5942C6.01539 11.5942 4.40579 9.98536 4.40579 8.00011ZM10.334 8.00006C10.334 6.71132 9.28927 5.6667 8.00064 5.6667C6.71191 5.6667 5.66729 6.71132 5.66729 8.00006C5.66729 9.28868 6.71191 10.3334 8.00064 10.3334C9.28927 10.3334 10.334 9.28868 10.334 8.00006Z" fill="#009FDA"/>
</svg>
