<svg width="24" height="34" viewBox="0 0 24 34" fill="none" xmlns="http://www.w3.org/2000/svg">
<path d="M24 25.4756H23.9991C23.9991 26.9224 22.9349 27.0175 21.6227 27.0175H2.37605C1.06327 27.0175 0 26.9222 0 25.4754L0 25.2262C0 24.1857 0.554581 23.2947 1.35139 22.8721L2.10577 15.6977C2.10577 10.4454 5.47697 6.06158 9.96498 5.02733V2.24206C9.96498 1.00394 10.8762 0 12.0005 0C13.1242 0 14.0354 1.00394 14.0354 2.24206V5.02754C18.5234 6.06158 21.8946 10.445 21.8946 15.6979L22.649 22.8733C23.4458 23.2966 24 24.1859 24 25.2264V25.4756Z" fill="#D5D9DC"/>
<path d="M11.9995 33.3119C10.0387 33.3119 8.44822 31.5611 8.44822 29.3991H15.5503C15.5507 31.5611 13.9603 33.3119 11.9995 33.3119Z" fill="#D5D9DC"/>
</svg>
